<svg id="Layer_1" data-name="Layer 1" xmlns="http://www.w3.org/2000/svg" viewBox="0 0 532 358"><path opacity="0.5" d="M471.47,298.44H449.66V258.07H431.6V118.75h-14V108.16H408v-38H393.7V87.27h-24V298.44h-13V298h-37.2l.11-2.46h37.09v-2.86H319.8l.11-2.46h36.84V287.4H320l.12-2.47h36.59v-2.85H320.29l.11-2.47h36.35v-2.85H320.54l.11-2.46h36.1v-2.86h-36l.12-2.46h35.85v-2.86H321l.11-2.46h35.61V260.8H321.27l.12-2.46h35.36v-2.85H321.52l.12-2.47h35.11v-2.85h-35l.11-2.46h34.87v-2.86H322l.12-2.46h34.62v-2.86H322.26l.11-2.46h34.38v-2.86H322.51l.11-2.46h34.13V228.9h-34l.12-2.47h33.88v-2.85H323l.11-2.46h33.64v-2.86h-33.5l.11-2.46h33.39v-2.86H323.49l.12-2.46h33.14v-2.86h-33l.11-2.46h32.9v-2.85H324l.11-2.47h32.65V197H324.23l.12-2.46h32.4v-2.86H324.48l.11-2.46h32.16v-2.86h-32l.11-2.46h31.91V181H325l.12-2.46h31.66v-2.85H325.22l.11-2.47h31.42V170.4H325.47l.11-2.46h31.17v-2.86h-31l.12-2.46h30.92v-2.86H326l.11-2.46h30.68v-2.86H326.21l.11-2.46h30.43v-2.85h-30.3l.12-2.47h30.18v-1.29q0-.78,0-1.56h-30l.11-2.46H356.6c-.07-1-.17-1.92-.29-2.86H326.94l.12-2.46h28.87c-.17-1-.36-1.92-.58-2.86H327.19l.12-2.46H354.7c-.28-1-.59-1.92-.92-2.85H327.44l.11-2.47h25.26c-.42-1-.86-1.93-1.34-2.85H327.68l.12-2.47h22.31c-.6-1-1.23-1.94-1.9-2.85H327.93l.11-2.46h18.2a33.16,33.16,0,0,0-2.82-2.86H328.18l.11-2.46h11.95a25,25,0,0,0-5.71-2.86h-6.11l.12-2.46H310.13V298.44h-8.4V135.71h-14V126.2h-16.5v9.51h-14v40.77h-6.07V114.2l3.82-5.07h-5.27V59.54l3-4h-4.89V22.11l2-2.72h-3.68V.32h-4.38V19.39H238.1l2,2.72V55.5h-4.89l3,4v49.59H233l3.81,5.07v62.28H229l5.23,7v74.64h-7.54V91.12h-9.52V88.27h4.76V77H167.79V88.27h4.77v2.85H163v167H136.9v40.37h-5.12V239.82l4.35-5.79h-6.56V182.15l3.18-4.22h-4.39V136.62l2.53-3.36h-4.08V105.44l1.7-2.26h-3.07V87.3h-3.65v15.88h-3.07l1.7,2.26v27.82h-4.07l2.53,3.36v41.31h-4.39l3.17,4.22V234H111.1l4.35,5.79v58.62H58.82V258.07H41.41v40.37H-.47v60.05h532A60.05,60.05,0,0,0,471.47,298.44ZM253.78,268.82V183.43l3.41-4.54V298.44h-3.41Z"/></svg>