<svg id="Layer_1" data-name="Layer 1" xmlns="http://www.w3.org/2000/svg" xmlns:xlink="http://www.w3.org/1999/xlink" viewBox="0 0 532 321"><defs><style>.cls-1{fill:none;}.cls-2{opacity:0.75;}.cls-3{clip-path:url(#clip-path);}.cls-4{fill:#111433;}</style><clipPath id="clip-path"><circle class="cls-1" cx="467.37" cy="224.87" r="57.46"/></clipPath></defs><g class="cls-2"><circle class="cls-1" cx="467.37" cy="224.87" r="57.46"/><g class="cls-3"><rect class="cls-4" x="401.47" y="135.9" width="1.76" height="177.94" transform="translate(-55.95 175.78) rotate(-23.09)"/><rect class="cls-4" x="410.71" y="135.9" width="1.76" height="177.94" transform="translate(-55.21 179.41) rotate(-23.09)"/><rect class="cls-4" x="419.95" y="135.9" width="1.76" height="177.94" transform="translate(-54.47 183.03) rotate(-23.09)"/><rect class="cls-4" x="429.19" y="135.9" width="1.76" height="177.94" transform="translate(-53.73 186.65) rotate(-23.09)"/><rect class="cls-4" x="438.44" y="135.9" width="1.76" height="177.94" transform="translate(-52.99 190.28) rotate(-23.09)"/><rect class="cls-4" x="447.68" y="135.9" width="1.76" height="177.94" transform="translate(-52.25 193.9) rotate(-23.09)"/><rect class="cls-4" x="456.92" y="135.9" width="1.76" height="177.94" transform="translate(-51.51 197.53) rotate(-23.09)"/><rect class="cls-4" x="466.16" y="135.9" width="1.76" height="177.94" transform="translate(-50.77 201.15) rotate(-23.09)"/><rect class="cls-4" x="475.4" y="135.9" width="1.76" height="177.94" transform="translate(-50.03 204.77) rotate(-23.09)"/><rect class="cls-4" x="484.65" y="135.9" width="1.76" height="177.94" transform="translate(-49.29 208.4) rotate(-23.09)"/><rect class="cls-4" x="493.89" y="135.9" width="1.76" height="177.94" transform="translate(-48.55 212.02) rotate(-23.09)"/><rect class="cls-4" x="503.13" y="135.9" width="1.76" height="177.94" transform="translate(-47.81 215.65) rotate(-23.09)"/><rect class="cls-4" x="512.37" y="135.9" width="1.76" height="177.94" transform="translate(-47.07 219.27) rotate(-23.09)"/><rect class="cls-4" x="521.61" y="135.9" width="1.76" height="177.94" transform="translate(-46.33 222.89) rotate(-23.09)"/><rect class="cls-4" x="530.85" y="135.9" width="1.76" height="177.94" transform="translate(-45.59 226.52) rotate(-23.09)"/><rect class="cls-4" x="540.1" y="135.9" width="1.76" height="177.94" transform="translate(-44.85 230.14) rotate(-23.09)"/><rect class="cls-4" x="452.01" y="223.99" width="177.94" height="1.76" transform="translate(122.07 634.42) rotate(-66.92)"/><rect class="cls-4" x="442.77" y="223.99" width="177.94" height="1.76" transform="translate(116.44 625.92) rotate(-66.92)"/><rect class="cls-4" x="433.52" y="223.99" width="177.94" height="1.76" transform="translate(110.82 617.41) rotate(-66.92)"/><rect class="cls-4" x="424.28" y="223.99" width="177.94" height="1.76" transform="translate(105.2 608.91) rotate(-66.92)"/><rect class="cls-4" x="415.04" y="223.99" width="177.94" height="1.76" transform="translate(99.58 600.41) rotate(-66.92)"/><rect class="cls-4" x="405.8" y="223.99" width="177.94" height="1.76" transform="translate(93.96 591.91) rotate(-66.92)"/><rect class="cls-4" x="396.56" y="223.99" width="177.94" height="1.76" transform="translate(88.34 583.41) rotate(-66.92)"/><rect class="cls-4" x="387.32" y="223.99" width="177.94" height="1.76" transform="translate(82.72 574.9) rotate(-66.92)"/><rect class="cls-4" x="378.07" y="223.99" width="177.94" height="1.76" transform="translate(77.1 566.4) rotate(-66.92)"/><rect class="cls-4" x="368.83" y="223.99" width="177.94" height="1.76" transform="translate(71.49 557.9) rotate(-66.92)"/><rect class="cls-4" x="359.59" y="223.99" width="177.94" height="1.76" transform="translate(65.87 549.4) rotate(-66.92)"/><rect class="cls-4" x="350.35" y="223.99" width="177.94" height="1.76" transform="translate(60.25 540.89) rotate(-66.92)"/><rect class="cls-4" x="341.11" y="223.99" width="177.94" height="1.76" transform="translate(54.63 532.39) rotate(-66.92)"/><rect class="cls-4" x="331.86" y="223.99" width="177.94" height="1.76" transform="translate(49.01 523.89) rotate(-66.92)"/><rect class="cls-4" x="322.62" y="223.99" width="177.94" height="1.76" transform="translate(43.39 515.39) rotate(-66.92)"/><rect class="cls-4" x="313.38" y="223.99" width="177.94" height="1.76" transform="translate(37.77 506.88) rotate(-66.92)"/></g><path class="cls-4" d="M467.37,284.77a59.9,59.9,0,1,1,59.9-59.9A60,60,0,0,1,467.37,284.77Zm0-115a55.15,55.15,0,1,0,55.15,55.15A55.21,55.21,0,0,0,467.37,169.72Z"/><path class="cls-4" d="M471.47,261.44H454.91V211.7h-1.24v-18h-.93V181.5h-1.87v12.18h-.93v18H448.7v30.52l-11.76-11a14,14,0,0,0,1.9-7.43c0-8.85-13.13-16-13.13-16s-13.13,7.18-13.13,16a13.88,13.88,0,0,0,1.9,7.43l-10.73,10v-19.8h-6.21v7.26L382.82,215a21.07,21.07,0,0,0,2.87-11.24c0-13.39-19.86-24.24-19.86-24.24S346,190.32,346,203.71A21.07,21.07,0,0,0,348.85,215l-14.72,13.76v-7.26h-6.22v19.8l-10.72-10a14,14,0,0,0,1.89-7.43c0-8.85-13.12-16-13.12-16s-13.13,7.18-13.13,16a13.88,13.88,0,0,0,1.9,7.43l-11.77,11V211.7h-1.24v-18h-.93V181.5h-1.86v12.18H278v18h-1.24v32.06h-8.62V118.7H271V95.15h1.56v-2H268.5a15.14,15.14,0,0,1-2.38-3h2.59V88.46H265.2a27.2,27.2,0,0,1-2.39-10.15H265s-2.81-2.56-4-11.42c-1.18,8.86-4,11.42-4,11.42h2.2a27.2,27.2,0,0,1-2.39,10.15h-3.51v1.71h2.6a15.14,15.14,0,0,1-2.39,3H249.5v2h1.57V118.7h2.84V241.36c-11.35-6-44.12-30.73-47.95-117.87H173a336.66,336.66,0,0,1,.11-37.15l.09-1.56H117v1.46c0,.31,0,31,15.85,65.29,21.92,47.39,13.86,109.17,13.78,109.78l0,.13H109.29V3.58H46.6V261.44H-.47v60.05h532A60.05,60.05,0,0,0,471.47,261.44Zm-38.62-14.17h2.83V256h-2.83Zm-2.87,0V256h-2.83v-8.68Zm-5.71,0V256h-2.83v-8.68ZM415.74,256v-8.68h2.82V256Zm22.82-8.68h2.83V256h-2.83Zm-28.53,0h2.83V256H410ZM365.83,238a5.62,5.62,0,0,1,5.62,5.62v17.78H360.21V243.66A5.62,5.62,0,0,1,365.83,238Zm20.54,17.27h-7.22V243.12h7.22Zm-41.08-12.19h7.22v12.19h-7.22Zm-32.19,4.15h2.83V256H313.1Zm-2.88,0V256H307.4v-8.68Zm-5.7,0V256h-2.83v-8.68ZM296,256v-8.68h2.83V256Zm22.83-8.68h2.83V256h-2.83Zm-28.53,0h2.82V256h-2.82ZM151,237.71h24.45c-.16,1-.33,2-.51,2.95h-24C150.94,239.7,151,238.72,151,237.71Zm0-2.49c0-1,0-1.94,0-2.95h25.17c-.11,1-.24,2-.38,2.95Zm0-5.44c0-1,0-1.95-.05-2.94H176.7q-.1,1.49-.24,2.94Zm-.11-5.44c0-1-.07-2-.11-2.94h26.14c0,1,0,2-.08,2.94Zm0,18.81h23.59c-.21,1-.42,2-.64,2.95H150.72C150.77,245.15,150.81,244.17,150.84,243.15Zm19-152.29q-.07,1.47-.12,2.94H120.3c-.09-1.09-.17-2.07-.23-2.94Zm-.21,5.44c0,1,0,2-.06,2.94H120.88c-.13-1-.24-2-.34-2.94Zm-.1,5.44q0,1.47,0,2.94H121.66c-.16-1-.31-2-.44-2.94Zm0,5.44,0,2.94h-47c-.19-1-.37-2-.53-2.94Zm.06,5.43c0,1,0,2,.08,3H123.75c-.23-1-.44-2-.64-3Zm.16,5.44c0,1,.07,2,.11,3H125.06c-.26-1-.5-2-.73-3Zm-19.61,5.44,1,3H126.55c-.29-1-.57-2-.83-3Zm1.86,5.44,1,2.95H128.23c-.32-1-.64-2-.94-2.95Zm1.83,5.44c.32.93.65,1.92,1,2.95H130.11c-.36-1-.71-2-1-2.95Zm1.82,5.44c.32.95.64,1.93,1,2.94H132.2c-.4-1-.78-2-1.16-2.94Zm1.8,5.44,1,2.94H134.51c-.44-1-.87-2-1.28-2.94Zm1.79,5.44c.31,1,.63,1.95,1,2.94H136.94c-.42-1-.86-2-1.3-2.94Zm1.76,5.44c.31,1,.63,2,.95,2.94H139.13c-.37-1-.75-2-1.15-2.94Zm1.75,5.44q.47,1.45.93,2.94H141.07c-.33-1-.67-2-1-2.94Zm1.72,5.44c.31,1,.61,2,.92,2.94H142.78q-.43-1.47-.9-2.94Zm1.7,5.43.9,2.95H144.28c-.25-1-.52-2-.79-2.95Zm1.67,5.44c.3,1,.59,2,.89,3H145.6c-.23-1-.45-2-.69-3Zm1.64,5.44.87,3H146.74c-.19-1-.39-2-.6-3Zm1.6,5.44c.28,1,.57,2,.84,3H147.73c-.17-1-.33-2-.51-3Zm1.55,5.44.82,3h-24.9c-.14-1-.28-2-.44-3Zm1.49,5.44c.21.75.4,1.5.6,2.23.06.24.11.48.16.71H149.28c-.12-1-.24-2-.37-2.94Zm1.33,5.44c.2,1,.38,2,.53,2.94H149.85c-.09-1-.19-2-.29-2.94Zm.88,5.44q.18,1.47.3,2.94H150.31c-.07-1-.15-2-.23-2.94Zm.46,5.44c.05,1,.08,2,.1,2.94H150.65c-.05-1-.11-2-.17-2.94Zm-26.22,32.63h22.6c-1.23,5-2.5,8.94-3.36,11.45H149.68C149.91,257.94,150.3,254,150.59,248.59ZM47.41,6.41h61.07c-.28,1-.56,2.08-.84,3.16H48.25C48,8.49,47.69,7.44,47.41,6.41Zm1.55,6h58c-.25,1-.5,2.09-.74,3.16H49.7C49.46,14.48,49.21,13.43,49,12.39Zm1.38,6h55.22c-.23,1-.45,2.09-.67,3.16H51C50.78,20.47,50.56,19.42,50.34,18.38Zm1.22,6h52.77c-.2,1-.4,2.09-.6,3.16H52.16C52,26.45,51.77,25.4,51.56,24.36Zm1.11,6h50.55q-.27,1.56-.54,3.15H53.21Q52.94,31.91,52.67,30.35Zm1,6h48.55c-.16,1-.33,2.09-.49,3.16H54.16C54,38.42,53.83,37.37,53.67,36.33Zm.91,6h46.74c-.15,1-.3,2.1-.44,3.16H55C54.87,44.41,54.73,43.36,54.58,42.31Zm.81,6H100.5c-.14,1-.27,2.09-.4,3.16H55.8C55.66,50.39,55.53,49.34,55.39,48.3Zm.75,6H99.75l-.36,3.16H56.5Zm.67,6H99.09q-.18,1.56-.33,3.15H57.14Q57,61.83,56.81,60.27Zm.6,6H98.48c-.1,1-.2,2.1-.29,3.16H57.7C57.61,68.35,57.51,67.3,57.41,66.25Zm.54,6h40c-.09,1-.18,2.1-.26,3.16H58.22Zm.48,6h39c-.08,1-.16,2.1-.23,3.16H58.67Zm.43,6H97c-.07,1-.13,2.1-.2,3.16H59.06C59,86.3,58.93,85.25,58.86,84.2Zm.37,6H96.66c-.06,1-.12,2.1-.17,3.15H59.41C59.35,92.29,59.29,91.23,59.23,90.19Zm.32,6H96.34l-.15,3.16H59.7Zm.27,6H96.07L96,105.31h-36Zm.22,6H95.85l-.09,3.16H60.14C60.11,110.24,60.08,109.19,60,108.14Zm.17,6H95.68c0,1-.05,2.1-.07,3.16H60.28C60.26,116.22,60.24,115.17,60.21,114.12Zm.13,6H95.56c0,1.06,0,2.11,0,3.16H60.39C60.37,122.21,60.35,121.16,60.34,120.1Zm.07,6H95.48l0,3.16h-35Zm0,6h35v1.37c0,.6,0,1.2,0,1.79h-35v-3.16Zm0,6h35c0,1.05,0,2.1,0,3.16H60.41Zm-.06,6H95.51c0,1.06,0,2.11,0,3.16H60.33C60.35,146.15,60.37,145.1,60.38,144Zm-.11,6H95.62c0,1.06,0,2.12.07,3.16H60.2C60.23,152.14,60.25,151.08,60.27,150Zm-.15,6H95.77c0,1.05.06,2.11.1,3.16H60Zm-.19,6H96c0,1.06.08,2.11.12,3.16H59.8C59.85,164.1,59.89,163.05,59.93,162Zm-.25,6H96.21l.15,3.16H59.53C59.58,170.08,59.64,169,59.68,168Zm-.3,6H96.51c0,1.06.11,2.11.17,3.16H59.21C59.27,176.07,59.33,175,59.38,174Zm-.34,6H96.86c.06,1.06.13,2.12.2,3.16H58.83C58.9,182.06,59,181,59,179.94Zm-.4,6H97.25l.24,3.16H58.4Zm-.46,6H97.71c.09,1.06.17,2.12.26,3.16h-40C58,194,58.1,193,58.18,191.91Zm-.51,6H98.23c.09,1.06.19,2.11.29,3.16H57.37Zm-.57,6H98.8c.1,1.06.22,2.11.33,3.16H56.76C56.88,206,57,204.94,57.1,203.88Zm-.65,6h43c.12,1.06.24,2.12.36,3.16H56.09C56.21,212,56.33,210.92,56.45,209.86Zm-.7,6h44.4c.13,1.06.27,2.11.4,3.16H55.34C55.48,218,55.61,216.91,55.75,215.85Zm-.79,6h46c.15,1.06.3,2.12.45,3.16H54.51C54.67,224,54.81,222.89,55,221.83Zm-.86,6h47.69c.17,1.06.33,2.11.5,3.16H53.6C53.77,229.93,53.94,228.88,54.1,227.82Zm-1,6h49.61c.18,1.07.36,2.12.55,3.16H52.6C52.78,235.92,53,234.87,53.14,233.8Zm-1.06,6h51.73c.2,1.07.4,2.12.6,3.16H51.48C51.69,241.9,51.89,240.85,52.08,239.78Zm-1.16,6H105c.22,1.07.44,2.12.67,3.16H50.25C50.47,247.89,50.69,246.84,50.92,245.77Zm-1.31,6h56.67c.25,1.07.5,2.13.75,3.16H48.86C49.11,253.88,49.36,252.82,49.61,251.75Zm-1.46,6h59.6c.28,1.07.56,2.12.85,3.15H47.29C47.58,259.86,47.87,258.81,48.15,257.74Z"/></g></svg>