<svg xmlns="http://www.w3.org/2000/svg" xmlns:xlink="http://www.w3.org/1999/xlink" width="43.912" height="43.912" viewBox="0 0 43.912 43.912"><defs><clipPath id="a"><rect width="43.912" height="43.912" rx="7.75" transform="translate(3058.443 2365.691)" fill="#f2f2f2"/></clipPath></defs><g transform="translate(-3058.443 -2365.691)" clip-path="url(#a)"><path d="M3082.09,2398.7v-24.182h-14.805v30.351h4.935V2398.7h4.935v6.169h4.935Zm0,0" fill="#e3eaef" fill-rule="evenodd"/><rect width="4.935" height="6.169" transform="translate(3072.22 2398.701)" fill="#c5d3de"/><rect width="12.338" height="6.169" transform="translate(3082.09 2398.701)" fill="#c5d3de"/><rect width="12.338" height="16.779" transform="translate(3082.09 2381.922)" fill="#e3eaef"/><path d="M3074.071,2376.37h1.233a.617.617,0,0,1,.617.617v1.233a.617.617,0,0,1-.617.617h-1.233a.617.617,0,0,1-.617-.617v-1.233a.617.617,0,0,1,.617-.617Zm0,0" fill="#fff" fill-rule="evenodd"/><path d="M3074.071,2380.688h1.233a.617.617,0,0,1,.617.617v1.234a.616.616,0,0,1-.617.616h-1.233a.616.616,0,0,1-.617-.616V2381.3a.617.617,0,0,1,.617-.617Zm0,0" fill="#fff" fill-rule="evenodd"/><path d="M3074.071,2385.006h1.233a.617.617,0,0,1,.617.617v1.234a.617.617,0,0,1-.617.617h-1.233a.617.617,0,0,1-.617-.617v-1.234a.617.617,0,0,1,.617-.617Zm0,0" fill="#fff" fill-rule="evenodd"/><path d="M3074.071,2389.324h1.233a.617.617,0,0,1,.617.617v1.234a.617.617,0,0,1-.617.617h-1.233a.617.617,0,0,1-.617-.617v-1.234a.617.617,0,0,1,.617-.617Zm0,0" fill="#fff" fill-rule="evenodd"/><path d="M3074.071,2393.643h1.233a.616.616,0,0,1,.617.616v1.234a.617.617,0,0,1-.617.617h-1.233a.617.617,0,0,1-.617-.617v-1.234a.616.616,0,0,1,.617-.616Zm0,0" fill="#fff" fill-rule="evenodd"/><path d="M3069.752,2376.37h1.234a.617.617,0,0,1,.617.617v1.233a.617.617,0,0,1-.617.617h-1.234a.616.616,0,0,1-.616-.617v-1.233a.616.616,0,0,1,.616-.617Zm0,0" fill="#fff" fill-rule="evenodd"/><path d="M3069.752,2380.688h1.234a.617.617,0,0,1,.617.617v1.234a.617.617,0,0,1-.617.616h-1.234a.616.616,0,0,1-.616-.616V2381.3a.617.617,0,0,1,.616-.617Zm0,0" fill="#fff" fill-rule="evenodd"/><path d="M3069.752,2385.006h1.234a.617.617,0,0,1,.617.617v1.234a.617.617,0,0,1-.617.617h-1.234a.617.617,0,0,1-.616-.617v-1.234a.616.616,0,0,1,.616-.617Zm0,0" fill="#fff" fill-rule="evenodd"/><path d="M3069.752,2389.324h1.234a.617.617,0,0,1,.617.617v1.234a.617.617,0,0,1-.617.617h-1.234a.616.616,0,0,1-.616-.617v-1.234a.617.617,0,0,1,.616-.617Zm0,0" fill="#fff" fill-rule="evenodd"/><path d="M3069.752,2393.643h1.234a.616.616,0,0,1,.617.616v1.234a.617.617,0,0,1-.617.617h-1.234a.617.617,0,0,1-.616-.617v-1.234a.616.616,0,0,1,.616-.616Zm0,0" fill="#fff" fill-rule="evenodd"/><path d="M3078.389,2376.37h1.234a.616.616,0,0,1,.616.617v1.233a.616.616,0,0,1-.616.617h-1.234a.617.617,0,0,1-.617-.617v-1.233a.617.617,0,0,1,.617-.617Zm0,0" fill="#fff" fill-rule="evenodd"/><path d="M3078.389,2380.688h1.234a.617.617,0,0,1,.616.617v1.234a.616.616,0,0,1-.616.616h-1.234a.617.617,0,0,1-.617-.616V2381.3a.617.617,0,0,1,.617-.617Zm0,0" fill="#fff" fill-rule="evenodd"/><path d="M3078.389,2385.006h1.234a.616.616,0,0,1,.616.617v1.234a.617.617,0,0,1-.616.617h-1.234a.617.617,0,0,1-.617-.617v-1.234a.617.617,0,0,1,.617-.617Zm0,0" fill="#fff" fill-rule="evenodd"/><path d="M3078.389,2389.324h1.234a.617.617,0,0,1,.616.617v1.234a.616.616,0,0,1-.616.617h-1.234a.617.617,0,0,1-.617-.617v-1.234a.617.617,0,0,1,.617-.617Zm0,0" fill="#fff" fill-rule="evenodd"/><path d="M3078.389,2393.643h1.234a.616.616,0,0,1,.616.616v1.234a.617.617,0,0,1-.616.617h-1.234a.617.617,0,0,1-.617-.617v-1.234a.616.616,0,0,1,.617-.616Zm0,0" fill="#fff" fill-rule="evenodd"/><path d="M3089.8,2385.006h1.234a.617.617,0,0,1,.617.617v1.234a.617.617,0,0,1-.617.617H3089.8a.617.617,0,0,1-.617-.617v-1.234a.617.617,0,0,1,.617-.617Zm0,0" fill="#fff" fill-rule="evenodd"/><path d="M3089.8,2389.324h1.234a.618.618,0,0,1,.617.617v1.234a.617.617,0,0,1-.617.617H3089.8a.617.617,0,0,1-.617-.617v-1.234a.618.618,0,0,1,.617-.617Zm0,0" fill="#fff" fill-rule="evenodd"/><path d="M3089.8,2393.643h1.234a.617.617,0,0,1,.617.616v1.234a.617.617,0,0,1-.617.617H3089.8a.617.617,0,0,1-.617-.617v-1.234a.617.617,0,0,1,.617-.616Zm0,0" fill="#fff" fill-rule="evenodd"/><path d="M3085.483,2385.006h1.234a.617.617,0,0,1,.617.617v1.234a.618.618,0,0,1-.617.617h-1.234a.617.617,0,0,1-.617-.617v-1.234a.617.617,0,0,1,.617-.617Zm0,0" fill="#fff" fill-rule="evenodd"/><path d="M3085.483,2389.324h1.234a.618.618,0,0,1,.617.617v1.234a.617.617,0,0,1-.617.617h-1.234a.617.617,0,0,1-.617-.617v-1.234a.617.617,0,0,1,.617-.617Zm0,0" fill="#fff" fill-rule="evenodd"/><path d="M3085.483,2393.643h1.234a.617.617,0,0,1,.617.616v1.234a.618.618,0,0,1-.617.617h-1.234a.617.617,0,0,1-.617-.617v-1.234a.616.616,0,0,1,.617-.616Zm0,0" fill="#fff" fill-rule="evenodd"/><path d="M3094.428,2381.3h-11.721v-6.786a.617.617,0,0,0-.617-.617h-14.805a.617.617,0,0,0-.617.617v30.351a.617.617,0,0,0,.617.617h27.143a.617.617,0,0,0,.617-.617v-22.948a.617.617,0,0,0-.617-.617Zm-11.721,1.234h11.1v15.545h-11.1Zm-9.87,21.714v-4.935h3.7v4.935Zm4.318-6.169h-4.935a.617.617,0,0,0-.617.617v5.552h-3.7v-29.117h13.571v29.117h-3.7V2398.7a.617.617,0,0,0-.617-.617Zm5.552,6.169v-4.935h11.1v4.935Zm0,0" fill="#9fa8ff"/></g></svg>