<svg xmlns="http://www.w3.org/2000/svg" xmlns:xlink="http://www.w3.org/1999/xlink" width="43.912" height="43.912" viewBox="0 0 43.912 43.912"><defs><clipPath id="a"><rect width="43.912" height="43.912" rx="7.75" transform="translate(3815.209 2365.691)" fill="#f2f2f2"/></clipPath></defs><g transform="translate(-3815.209 -2365.691)" clip-path="url(#a)"><path d="M547.608,374.8l-29.617-.1-.371.06a16.163,16.163,0,0,1-.129-4.244,10.92,10.92,0,0,1,1.12-4.363,9.629,9.629,0,0,1,4.222-4.016l6.378-2.254.112.377c.011.036,1.029,3.368,3.208,4.3a8.557,8.557,0,0,0,3.292-4.107l.092-.286.3.028a15.241,15.241,0,0,1,4.559,1.169,15.508,15.508,0,0,1,5.715,4.277,14.441,14.441,0,0,1,1.228,3.2,14.952,14.952,0,0,1,.258,6.015Zm-15.025-18.5c-4.994-.314-6.59-6.5-6.656-6.765l-.011-8.109h.75v8.018c.013,0,1.532,5.829,5.963,6.108,4.172.247,6.1-5.281,6.283-5.864v-7.913c-1.178-.9-3.946-1.3-5.407-1.419l-.033,1.278h-.365c-.153,0-.23,0-2.872-2.084-2.693-2.127-1.873-6.025-1.837-6.188l.08-.162a6.206,6.206,0,0,1,4.912-1.937,5.062,5.062,0,0,0,4.166-1.628l.526-.667.7,4.244,2.068-1.684.067,3.769.926-.656.115.563c.727,3.533-1.864,6.973-1.974,7.118l-.327.428-.012,7.1c-.079.271-1.955,6.462-6.713,6.462C532.82,356.309,532.7,356.306,532.583,356.3Zm.579-16.718c.542.03,4.971.313,6.512,1.873a9.4,9.4,0,0,0,1.64-5.518l-1.117.794-.067-3.648-1.875,1.525-.655-3.968a6.115,6.115,0,0,1-4.241,1.372,5.623,5.623,0,0,0-4.245,1.606c-.1.581-.521,3.679,1.587,5.343,1.052.83,1.678,1.311,2.049,1.589l.026-.99Z" transform="translate(3304.404 2038.06)" fill="#9fa8ff" stroke="rgba(0,0,0,0)" stroke-miterlimit="10" stroke-width="1"/><path d="M3830.44,2380.314l-.229-.365c-.092-.147-2.246-3.654-1.28-7.31l.084-.321,1.223.166-.857-2.884.851.548c.554.358,2.17,1.2,2.966.783l.924-.475-.408.957a5.62,5.62,0,0,0,.77,5.092l.184.279Zm-.861-7.163a9.573,9.573,0,0,0,1.058,6.021l3.043-2.54a6.544,6.544,0,0,1-.86-4.848,4.679,4.679,0,0,1-2.171-.551l.638,2.152Z" fill="#9fa8ff"/><ellipse cx="0.718" cy="0.768" rx="0.718" ry="0.768" transform="translate(3833.21 2381.471)" fill="#9fa8ff"/><rect width="0.749" height="1.22" transform="translate(3832.821 2381.765) rotate(-80.138)" fill="#9fa8ff"/><ellipse cx="0.718" cy="0.768" rx="0.718" ry="0.768" transform="translate(3840.302 2381.471)" fill="#9fa8ff"/><rect width="1.221" height="0.749" transform="translate(3840.797 2381.236) rotate(-9.904)" fill="#9fa8ff"/><path d="M3832.759,2380.646l-.467-.588a2.6,2.6,0,0,1,2.993-.12l-.408.628A1.878,1.878,0,0,0,3832.759,2380.646Z" fill="#9fa8ff"/><path d="M3840.159,2380.646l-.467-.588a2.606,2.606,0,0,1,2.994-.12l-.409.628A1.878,1.878,0,0,0,3840.159,2380.646Z" fill="#9fa8ff"/><path d="M3838.007,2386.991h-1.138v-.75h1.138a.2.2,0,0,0,.156-.071.2.2,0,0,0,.047-.165,40.291,40.291,0,0,0-1.181-4.554l.715-.228a40.473,40.473,0,0,1,1.208,4.671.954.954,0,0,1-.945,1.1Z" fill="#9fa8ff"/><path d="M3837.456,2390.081a2.611,2.611,0,0,1-1.94-.9l.568-.489a1.846,1.846,0,0,0,1.384.637,1.921,1.921,0,0,0,1.452-.746l.607.439a2.661,2.661,0,0,1-2.055,1.057Z" fill="#9fa8ff"/><path d="M3845.084,2385.939h-1.416v-.75h1.094a3.1,3.1,0,0,0,.341-3.585c-.538-.965-.806-.985-.81-.985h0a.779.779,0,0,0-.218.417l-.731-.165c.02-.092.22-.9.843-.994.665-.083,1.219.73,1.571,1.361a3.924,3.924,0,0,1-.564,4.591Z" fill="#9fa8ff"/><path d="M3830.567,2385.939h-1.124l-.11-.11a3.93,3.93,0,0,1-.562-4.591c.367-.661.886-1.4,1.492-1.284s.765,1.006.789,1.183l-.744.1a1.155,1.155,0,0,0-.2-.549,2.627,2.627,0,0,0-.682.917,3.124,3.124,0,0,0,.342,3.585h.8Z" fill="#9fa8ff"/><rect width="0.75" height="7.238" transform="translate(3833.053 2392.425)" fill="#9fa8ff"/><rect width="0.75" height="6.349" transform="translate(3840.194 2392.713)" fill="#9fa8ff"/><path d="M3834.572,2404.841s-4.009-3.207-2.806-5.813l1.6-.6s2.305,4.61,3.608,4.61Z" fill="#fff"/><path d="M3834.565,2405.316l-.227-.182c-.173-.139-4.224-3.423-2.913-6.264l.065-.139,2.064-.774.15.3c1.06,2.118,2.613,4.4,3.274,4.4h1.125Zm-2.516-5.994c-.736,1.954,1.767,4.359,2.538,5.039l1.64-1.229c-1.17-.8-2.46-3.114-3.04-4.236Z" fill="#9fa8ff"/><path d="M3837.354,2403.037l2.405,1.8s4.009-3.207,2.807-5.813l-1.98-.4S3839.433,2401.709,3837.354,2403.037Z" fill="#fff"/><path d="M3839.767,2405.316l-3.072-2.3.456-.292c1.948-1.243,3.073-4.2,3.083-4.226l.113-.3,2.479.5.08.173c1.311,2.841-2.74,6.125-2.913,6.264Zm-1.779-2.271,1.756,1.316c.768-.676,3.246-3.057,2.551-5.005l-1.478-.3A10.777,10.777,0,0,1,3837.988,2403.045Z" fill="#9fa8ff"/></g></svg>