<svg xmlns="http://www.w3.org/2000/svg" xmlns:xlink="http://www.w3.org/1999/xlink" width="55" height="76" viewBox="30 15 55 76"><defs><clipPath id="a"><rect width="114.886" height="89.839" rx="21.6" transform="translate(5151.125 2052.733)" fill="#fff"/></clipPath></defs><g transform="translate(-5151.125 -2052.733)" clip-path="url(#a)"><path d="M5195.062,2097v-.821c.232,0,.9-1.332.9-3.875a11.008,11.008,0,0,0-.3-2.661l.795-.206a11.842,11.842,0,0,1,.323,2.867C5196.786,2094.564,5196.247,2097,5195.062,2097Z" fill="#9fa8ff"/><path d="M567.977,403.507h0l-50.657-.172-.406.066a27.5,27.5,0,0,1-.216-7.2l.012-.124a18.225,18.225,0,0,1,1.877-7.25,16.213,16.213,0,0,1,7.123-6.774l10.237-3.616.347-.13,0,.006.064-.022.115.386c1.152,2.3,3.135,5.612,4.635,6.987a6.013,6.013,0,0,0,1.1.588,16.428,16.428,0,0,0,4.379-4.286,20.718,20.718,0,0,0,1.453-2.945l.008-.021.089-.275h.013l.013-.034.31.063a25.891,25.891,0,0,1,7.721,1.982,26.289,26.289,0,0,1,9.688,7.249,24.852,24.852,0,0,1,2.056,5.393,25.32,25.32,0,0,1,.435,10.193Zm-29.265-32.051-.139-.049c-5.508-3.133-7.009-8.455-7.575-10.458-.068-.242-.139-.491-.178-.59-.243-.329-.385-1.761-.159-9.447-.443.83-.8,1.4-.958,1.633l.122,11.752-.713-.73c-5.114-5.23-3.608-15.35-3.541-15.779.529-8.762,2.611-11.9,4.262-12.991a3.027,3.027,0,0,1,2.569-.475l.179.065.048.13c0-.135.013-.272.023-.41l.012-.158.114-.109c.1-.09,9.61-8.972,17.681-2.537,7.926,6.317,8.914,13.675,8.951,13.984l.465,14.286-5.208,4.648.157-1.112a40.389,40.389,0,0,0,.282-6.524.914.914,0,0,1-.618.25,1.049,1.049,0,0,1-.841-.509l.051,2.49c-.9,4.985-4.717,11.879-7.739,12.635a13.517,13.517,0,0,1-3.168.319A29.146,29.146,0,0,1,538.711,371.456Zm-7.279-22.109.1,0c-.119,3.651-.237,9.6-.072,10.48a2.856,2.856,0,0,1,.329.9c.537,1.905,1.964,6.958,7.124,9.93a21.823,21.823,0,0,0,6.85,0c2.477-.62,6.206-6.851,7.125-11.9l-.226-10.562c-3.3-3.808-8.86-3.137-8.918-3.129l-.054.007-.057-.008c-.093-.012-7.425-1.117-10.072-6.188A22.176,22.176,0,0,1,531.432,349.347ZM530.256,335.5c-1.483,1-3.36,3.956-3.871,12.372-.019.131-1.357,9.145,2.6,14.291l-.105-9.869.073-.107c.06-.088,5.917-8.815,3-17.135a1.94,1.94,0,0,0-.281-.02A2.524,2.524,0,0,0,530.256,335.5Zm25.51,26.636,3.279-2.926-.451-13.864c-.006-.036-1-7.309-8.646-13.407-6.916-5.513-15.1,1.17-16.42,2.328a3.268,3.268,0,0,0,3.375,2.544l.092.815c-.005,0-.09.009-.235.009a4.066,4.066,0,0,1-3.241-1.579c.89,6.593,9.342,8.05,10.179,8.177a10.689,10.689,0,0,1,1.166-.057c1.968,0,5.859.435,8.487,3.551l.122,0,0,.153.139.176a13.318,13.318,0,0,1,2.175,6.518l.193.04q-.061.294-.133.551A38.708,38.708,0,0,1,555.766,362.14Zm-2.181-10c0,2.543.672,3.875.9,3.875.045,0,.288-.184.519-.906a16.1,16.1,0,0,0-1.228-5.18A11.839,11.839,0,0,0,553.586,352.137ZM542.215,364.4a4.236,4.236,0,0,1-3.15-1.458l.623-.534a3.465,3.465,0,0,0,2.528,1.172h.016a3.486,3.486,0,0,0,2.669-1.373l.664.481a4.341,4.341,0,0,1-3.329,1.712Zm-1.011-5.286v-.82h1.948a.583.583,0,0,0,.575-.671A36.8,36.8,0,0,0,542.92,354h-1.9v2.376a1.654,1.654,0,0,1-1.653,1.651H534.5a1.653,1.653,0,0,1-1.652-1.651v-1.544a1.654,1.654,0,0,1,1.652-1.652H542.7c-.5-1.826-.991-3.352-1-3.38l.783-.25c.037.118.552,1.736,1.07,3.631h7.411a1.653,1.653,0,0,1,1.651,1.652v1.828a1.654,1.654,0,0,1-1.651,1.653H546.39a1.654,1.654,0,0,1-1.652-1.653V354h-.967c.321,1.229.617,2.5.768,3.5a1.4,1.4,0,0,1-1.387,1.612Zm4.354-2.453a.834.834,0,0,0,.832.833h4.572a.834.834,0,0,0,.832-.833v-1.828a.833.833,0,0,0-.832-.832h-5.4Zm-11.886-1.828v1.544a.833.833,0,0,0,.833.832h4.857a.833.833,0,0,0,.832-.832V354H534.5A.833.833,0,0,0,533.672,354.837Zm13.4-3.614a1.3,1.3,0,0,1,.925-1.274l-.038-.216,2.057-.358.141.809-.94.163a1.361,1.361,0,0,1,.313.875,1.232,1.232,0,1,1-2.458,0Zm-12.128,0a1.362,1.362,0,0,1,.312-.875l-.939-.163.14-.809,2.057.358-.038.216a1.3,1.3,0,0,1,.925,1.274,1.231,1.231,0,1,1-2.457,0Zm11.23-3.551a4.3,4.3,0,0,1,4.851-.194l-.447.689a3.409,3.409,0,0,0-3.894.149Zm-12.656,0a4.3,4.3,0,0,1,4.849-.194l-.447.689a3.45,3.45,0,0,0-3.893.148Zm17.359-6.515a76.967,76.967,0,0,0-10.895-2.041l.094-.815a76.174,76.174,0,0,1,11.047,2.074,7.273,7.273,0,0,1,4.856,5.706l-.814.114A6.443,6.443,0,0,0,550.881,341.157Z" transform="translate(4665.371 1740.165)" fill="#9fa8ff" stroke="rgba(0,0,0,0)" stroke-miterlimit="10" stroke-width="1"/><rect width="0.82" height="10.329" transform="translate(5200.837 2108.83)" fill="#9fa8ff"/><rect width="0.82" height="10.329" transform="translate(5213.051 2109.559)" fill="#9fa8ff"/></g></svg>